<svg width="17" height="21" viewBox="0 0 17 21" fill="none" xmlns="http://www.w3.org/2000/svg">
<path d="M15.6216 10.7115C14.0947 6.70254 8.6582 6.48637 9.97113 0.659684C10.0684 0.227349 9.61129 -0.106728 9.24172 0.119265C5.7114 2.22198 3.17306 6.43725 5.30293 11.9593C5.47799 12.4113 4.95281 12.8338 4.57352 12.5391C2.81322 11.1929 2.62844 9.25725 2.78405 7.87181C2.8424 7.36087 2.18107 7.11523 1.89903 7.53773C1.2377 8.55962 0.56665 10.2103 0.56665 12.6963C0.936216 18.1987 5.53634 19.8888 7.18966 20.1049C9.55294 20.4095 12.1107 19.9674 13.9488 18.2675C15.9717 16.3711 16.7108 13.3448 15.6216 10.7115ZM6.59641 15.6538C7.99687 15.3099 8.71655 14.288 8.91106 13.3841C9.232 11.979 7.97742 10.6034 8.82353 8.38275C9.14447 10.2202 12.0037 11.3698 12.0037 13.3743C12.0815 15.8602 9.41678 17.9924 6.59641 15.6538Z" fill="#11C894"/>
</svg>
