<svg width="126" height="48" viewBox="0 0 126 48" fill="none" xmlns="http://www.w3.org/2000/svg">
<path d="M45.729 19.246L47.7 18.706V8.365C47.7 7.897 47.664 7.591 47.592 7.447C47.52 7.285 47.331 7.141 47.025 7.015L45.675 6.232L45.756 3.802H60.417C60.543 5.692 60.606 7.537 60.606 9.337L58.608 9.472L56.691 7.096L52.614 6.988V11.794L58.365 11.281V15.439L52.614 14.818V17.626C52.614 18.058 52.641 18.337 52.695 18.463C52.767 18.589 52.938 18.715 53.208 18.841L54.828 19.813L54.747 22H45.864L45.729 19.246ZM67.3387 22.324C65.2327 22.324 63.6037 21.685 62.4517 20.407C61.3177 19.129 60.7507 17.365 60.7507 15.115C60.7507 13.549 61.0297 12.208 61.5877 11.092C62.1457 9.958 62.9377 9.094 63.9637 8.5C64.9897 7.906 66.1867 7.609 67.5547 7.609C69.5887 7.609 71.1457 8.257 72.2257 9.553C73.3237 10.849 73.8457 12.694 73.7917 15.088L65.5837 16.6C65.8357 17.356 66.1867 17.914 66.6367 18.274C67.1047 18.616 67.7167 18.787 68.4727 18.787C68.9947 18.787 69.6157 18.715 70.3357 18.571C71.0557 18.409 71.7847 18.193 72.5227 17.923L73.1437 20.596C72.4777 21.1 71.6137 21.514 70.5517 21.838C69.4897 22.162 68.4187 22.324 67.3387 22.324ZM69.3637 12.82C69.3277 12.136 69.1297 11.641 68.7697 11.335C68.4277 11.011 67.9417 10.849 67.3117 10.849C66.7897 10.849 66.2947 10.921 65.8267 11.065C65.4487 11.947 65.2777 12.901 65.3137 13.927L69.3637 12.82ZM76.1029 2.02L80.6929 0.804999L81.7999 4.909L77.2369 6.151L76.1029 2.02ZM74.9689 19.516L76.8589 18.949V12.388C76.8589 11.992 76.8229 11.74 76.7509 11.632C76.6969 11.506 76.5439 11.371 76.2919 11.227L75.1039 10.579L75.2389 8.554C76.7329 8.266 77.8849 8.059 78.6949 7.933C79.5229 7.789 80.2789 7.708 80.9629 7.69C81.1969 8.464 81.3409 9.04 81.3949 9.418V18.058C81.3949 18.436 81.4219 18.688 81.4759 18.814C81.5299 18.94 81.6829 19.075 81.9349 19.219L83.2579 19.975L83.1499 22H75.0499L74.9689 19.516ZM89.9647 22.351C88.3807 22.351 87.2107 21.964 86.4547 21.19C85.6987 20.398 85.3207 19.201 85.3207 17.599V11.038H83.4307V9.067L88.2907 4.639L89.8567 4.828V7.879H94.3927V11.065H89.8567V16.627C89.8567 17.491 89.9737 18.067 90.2077 18.355C90.4597 18.643 90.9367 18.787 91.6387 18.787C92.2327 18.787 93.0607 18.706 94.1227 18.544L94.4467 21.298C93.7987 21.604 93.0697 21.856 92.2597 22.054C91.4677 22.252 90.7027 22.351 89.9647 22.351ZM102.412 22.351C100.126 22.351 98.4161 21.766 97.2821 20.596C96.1661 19.426 95.6081 17.635 95.6081 15.223C95.6081 13.675 95.8871 12.325 96.4451 11.173C97.0211 10.021 97.8401 9.139 98.9021 8.527C99.9641 7.915 101.215 7.609 102.655 7.609C107.317 7.609 109.648 10.021 109.648 14.845C109.648 17.203 109.009 19.048 107.731 20.38C106.471 21.694 104.698 22.351 102.412 22.351ZM102.844 19.192C103.204 19.192 103.519 19.165 103.789 19.111C104.059 19.039 104.347 18.931 104.653 18.787C104.761 18.373 104.851 17.842 104.923 17.194C104.995 16.546 105.031 15.925 105.031 15.331C105.031 13.873 104.797 12.766 104.329 12.01C103.879 11.254 103.204 10.876 102.304 10.876C101.71 10.876 101.107 10.957 100.495 11.119C100.369 11.389 100.27 11.83 100.198 12.442C100.126 13.036 100.09 13.72 100.09 14.494C100.09 16.006 100.324 17.167 100.792 17.977C101.278 18.787 101.962 19.192 102.844 19.192ZM45.729 42.246L47.7 41.706V31.365C47.7 30.897 47.664 30.591 47.592 30.447C47.52 30.285 47.331 30.141 47.025 30.015L45.675 29.232L45.756 26.802H60.417C60.543 28.692 60.606 30.537 60.606 32.337L58.608 32.472L56.691 30.096L52.614 29.988V34.794L58.365 34.281V38.439L52.614 37.818V40.626C52.614 41.058 52.641 41.337 52.695 41.463C52.767 41.589 52.938 41.715 53.208 41.841L54.828 42.813L54.747 45H45.864L45.729 42.246ZM61.8921 42.435L63.5391 41.949V35.388C63.5391 34.992 63.5121 34.74 63.4581 34.632C63.4041 34.506 63.2601 34.371 63.0261 34.227L61.8381 33.579L61.9191 31.554C62.2251 31.482 62.4861 31.437 62.7021 31.419C64.8801 30.969 66.4911 30.726 67.5351 30.69C67.6971 31.158 67.8501 31.743 67.9941 32.445C69.0741 31.599 69.9921 31.014 70.7481 30.69H72.2871C72.2691 31.374 72.2241 32.121 72.1521 32.931C72.0801 33.723 71.9901 34.362 71.8821 34.848C71.2341 34.812 70.7571 34.794 70.4511 34.794C69.6951 34.794 68.9121 34.839 68.1021 34.929V41.058C68.1021 41.436 68.1291 41.688 68.1831 41.814C68.2371 41.94 68.3811 42.075 68.6151 42.219L70.2351 43.083L70.1271 45H62.0271L61.8921 42.435ZM79.6522 45.324C77.5462 45.324 75.9172 44.685 74.7652 43.407C73.6312 42.129 73.0642 40.365 73.0642 38.115C73.0642 36.549 73.3432 35.208 73.9012 34.092C74.4592 32.958 75.2512 32.094 76.2772 31.5C77.3032 30.906 78.5002 30.609 79.8682 30.609C81.9022 30.609 83.4592 31.257 84.5392 32.553C85.6372 33.849 86.1592 35.694 86.1052 38.088L77.8972 39.6C78.1492 40.356 78.5002 40.914 78.9502 41.274C79.4182 41.616 80.0302 41.787 80.7862 41.787C81.3082 41.787 81.9292 41.715 82.6492 41.571C83.3692 41.409 84.0982 41.193 84.8362 40.923L85.4572 43.596C84.7912 44.1 83.9272 44.514 82.8652 44.838C81.8032 45.162 80.7322 45.324 79.6522 45.324ZM81.6772 35.82C81.6412 35.136 81.4432 34.641 81.0832 34.335C80.7412 34.011 80.2552 33.849 79.6252 33.849C79.1032 33.849 78.6082 33.921 78.1402 34.065C77.7622 34.947 77.5912 35.901 77.6272 36.927L81.6772 35.82ZM94.4969 45.324C92.3909 45.324 90.7619 44.685 89.6099 43.407C88.4759 42.129 87.9089 40.365 87.9089 38.115C87.9089 36.549 88.1879 35.208 88.7459 34.092C89.3039 32.958 90.0959 32.094 91.1219 31.5C92.1479 30.906 93.3449 30.609 94.7129 30.609C96.7469 30.609 98.3039 31.257 99.3839 32.553C100.482 33.849 101.004 35.694 100.95 38.088L92.7419 39.6C92.9939 40.356 93.3449 40.914 93.7949 41.274C94.2629 41.616 94.8749 41.787 95.6309 41.787C96.1529 41.787 96.7739 41.715 97.4939 41.571C98.2139 41.409 98.9429 41.193 99.6809 40.923L100.302 43.596C99.6359 44.1 98.7719 44.514 97.7099 44.838C96.6479 45.162 95.5769 45.324 94.4969 45.324ZM96.5219 35.82C96.4859 35.136 96.2879 34.641 95.9279 34.335C95.5859 34.011 95.0999 33.849 94.4699 33.849C93.9479 33.849 93.4529 33.921 92.9849 34.065C92.6069 34.947 92.4359 35.901 92.4719 36.927L96.5219 35.82ZM101.732 42.516L103.622 41.949V29.016C103.622 28.62 103.586 28.368 103.514 28.26C103.46 28.134 103.307 27.999 103.055 27.855L101.867 27.234L102.002 25.182C102.362 25.11 102.641 25.065 102.839 25.047C105.215 24.615 106.871 24.381 107.807 24.345C107.987 24.759 108.104 25.227 108.158 25.749V41.058C108.158 41.436 108.185 41.688 108.239 41.814C108.293 41.94 108.446 42.075 108.698 42.219L110.021 42.975L109.913 45H101.813L101.732 42.516ZM115.007 45.351C113.783 45.351 112.802 45.018 112.064 44.352C111.326 43.668 110.957 42.795 110.957 41.733C110.957 40.311 111.668 39.195 113.09 38.385C114.53 37.575 116.618 37.116 119.354 37.008C119.354 36.162 119.282 35.541 119.138 35.145C119.012 34.731 118.769 34.452 118.409 34.308C118.067 34.146 117.536 34.065 116.816 34.065C116.078 34.065 115.556 34.092 115.25 34.146L114.143 36.333L112.145 36.198C111.839 34.758 111.623 33.264 111.497 31.716C112.505 31.374 113.603 31.104 114.791 30.906C115.997 30.708 117.122 30.609 118.166 30.609C120.074 30.609 121.442 30.987 122.27 31.743C123.098 32.481 123.512 33.714 123.512 35.442V41.085C123.512 41.409 123.539 41.634 123.593 41.76C123.665 41.886 123.809 42.012 124.025 42.138L125.105 42.759L124.997 44.433C122.909 44.919 121.262 45.189 120.056 45.243C120.02 45.135 119.966 44.946 119.894 44.676C119.822 44.388 119.759 44.118 119.705 43.866C119.003 44.316 118.229 44.676 117.383 44.946C116.555 45.216 115.763 45.351 115.007 45.351ZM116.816 42.3C117.536 42.3 118.409 42.057 119.435 41.571L119.327 39.519C118.895 39.483 118.607 39.465 118.463 39.465C117.977 39.465 117.41 39.519 116.762 39.627C116.114 39.717 115.601 39.825 115.223 39.951C115.169 40.185 115.142 40.401 115.142 40.599C115.142 41.139 115.286 41.562 115.574 41.868C115.88 42.156 116.294 42.3 116.816 42.3Z" fill="white"/>
<path fill-rule="evenodd" clip-rule="evenodd" d="M9.58037 44.6338C18.0351 47.3416 27.7299 48.6282 33.3868 43.3471C44.5289 32.945 32.2189 4.33227 32.2189 4.33227C32.2189 4.33227 13.1564 7.068 1.36385 14.9754L2.39474 18.6965L19.237 19.4363L5.17645 28.7374L9.58037 44.6338Z" fill="url(#paint0_linear_546_723)"/>
<defs>
<linearGradient id="paint0_linear_546_723" x1="20.5395" y1="3.81923" x2="18.6496" y2="46.842" gradientUnits="userSpaceOnUse">
<stop stop-color="#2F2C50"/>
<stop offset="1" stop-color="#6E60F4"/>
</linearGradient>
</defs>
</svg>
