<svg width="164" height="205" viewBox="0 0 164 205" fill="none" xmlns="http://www.w3.org/2000/svg">
<mask id="path-1-outside-1_87_8" maskUnits="userSpaceOnUse" x="0" y="0" width="165" height="206" fill="black">
<rect fill="white" width="165" height="206"/>
<path fill-rule="evenodd" clip-rule="evenodd" d="M80.8251 3.63728C79.9985 4.46211 79.9742 5.78994 80.7418 8.17448C82.1479 12.5416 82.3863 13.9283 81.8897 14.8537C81.6235 15.3499 81.0426 15.7557 80.5986 15.7557C80.1545 15.7557 79.3818 16.283 78.8809 16.9279C75.1092 21.7857 75.3832 21.0555 75.7028 25.4021C75.8623 27.568 75.8747 29.6473 75.7302 30.0225C75.4917 30.6427 75.3755 30.6444 74.4493 30.0391C72.5145 28.7748 70.4853 30.323 68.265 34.7566C66.4076 38.4647 64.7198 39.6267 61.1896 39.6267C58.5594 39.6267 58.3017 39.7192 56.4336 41.3318C54.5851 42.9273 54.2877 43.0369 51.7986 43.0369H49.1385L47.2302 45.3323C46.1801 46.5945 45.1087 47.985 44.848 48.4215C44.4577 49.0767 43.7303 49.242 40.6925 49.3665L37.0105 49.5174L35.0757 52.5333C34.0115 54.1923 33.1409 55.7776 33.1409 56.0559C33.1409 56.3347 32.7422 57.0679 32.2549 57.6856C31.3933 58.7785 31.2741 58.8024 27.8742 58.5616L24.3795 58.3143L20.1188 61.126C17.7754 62.6725 15.7338 64.1742 15.5821 64.4637C15.4304 64.7531 15.1833 65.9334 15.0329 67.0865C14.8829 68.2396 14.2811 70.2264 13.696 71.5009C13.1109 72.7759 12.7387 73.9912 12.8695 74.2018C12.9998 74.4123 14.2486 75.3582 15.6445 76.3037C17.0403 77.2492 18.1823 78.1669 18.1823 78.3434C18.1823 79.762 16.5971 84.0942 15.2218 86.4348C12.1647 91.6374 12.0262 91.805 10.2295 92.4725C7.90533 93.3353 7.08902 94.0638 6.15689 96.1073C5.09226 98.442 5.1427 99.6645 6.32229 100.121C10.3376 101.676 14.9004 103.872 16.9467 105.235C18.2858 106.127 21.2305 107.571 23.4901 108.445C27.2558 109.9 30.4928 111.951 32.387 114.082C32.8704 114.626 33.27 116.17 33.5341 118.513L33.9397 122.11L33.8367 118.179L33.7337 114.248L31.1933 111.922C29.2765 110.167 27.7909 109.268 25.1381 108.259C21.0958 106.72 17.9169 105.115 16.6865 103.991C15.9702 103.336 9.68327 100.486 6.91123 99.5588C6.2663 99.3431 6.16373 99.0242 6.38212 97.9125C6.80866 95.7394 7.96175 94.5003 10.8248 93.1379C12.4391 92.3698 13.5832 91.533 13.7396 91.0066C13.8815 90.5296 14.8594 88.6557 15.9133 86.8419C17.6712 83.8163 19.0196 80.135 19.032 78.3263C19.035 77.9082 17.9421 76.8549 16.4728 75.8595C15.0624 74.9043 13.9084 73.9793 13.9084 73.8041C13.9084 73.6289 14.2957 72.3867 14.7688 71.0435C15.2423 69.7008 15.8283 67.6777 16.071 66.5485C16.492 64.5911 16.6856 64.3784 20.2321 61.9892C23.6367 59.6954 24.1512 59.4823 26.3027 59.4704C27.5956 59.4635 29.1517 59.6123 29.7611 59.802C31.2138 60.2534 33.3008 58.565 34.0346 56.3437C34.3227 55.4724 35.2283 53.7524 36.0472 52.5213L37.5358 50.2834H41.2929C44.4954 50.2834 45.0856 50.1734 45.2886 49.5374C45.4198 49.127 46.3942 47.7365 47.4537 46.447L49.3804 44.1025L52.3371 43.8647C54.9865 43.6515 55.475 43.4631 57.0401 42.053C58.6671 40.5871 58.9727 40.4792 61.4994 40.4792C65.2938 40.4792 67.2346 39.0564 69.2677 34.7847C71.02 31.103 72.1931 30.2258 74.3006 31.0212C76.4764 31.8426 76.8743 30.9402 76.5615 25.8957C76.3072 21.7925 76.3161 21.743 77.5257 20.3543C78.1971 19.5831 78.9737 18.5209 79.2515 17.9936C79.5293 17.4663 80.0472 17.0345 80.4028 17.0345C81.3136 17.0345 83.1454 14.9492 83.1454 13.9121C83.1454 13.4355 82.9578 12.4563 82.7287 11.7364C81.8953 9.11696 81.0401 4.96681 81.2602 4.61088C81.6098 4.04692 83.0565 4.17864 84.4596 4.90245C85.1588 5.26307 86.832 5.7601 88.1779 6.00648C90.1524 6.36838 90.8555 6.73327 91.8214 7.89656C92.7843 9.05686 93.4292 9.39233 95.126 9.61698C96.285 9.77001 97.5629 10.1357 97.9655 10.4294C98.6557 10.9329 98.6549 11.0284 97.948 12.1043C97.5172 12.7603 97.2548 13.8242 97.3308 14.6069C97.4565 15.9032 97.5411 15.9628 99.0883 15.8409C100.595 15.7224 100.932 15.9309 103.693 18.6846C105.332 20.3189 106.874 22.2328 107.121 22.9379C107.555 24.1796 109.192 25.1336 110.889 25.1336C111.269 25.1336 112.321 25.53 113.228 26.0147C114.433 26.6588 115.295 26.8254 116.434 26.6336C117.794 26.4043 118.153 26.5403 119.267 27.7065C119.968 28.441 121.455 29.7134 122.572 30.5344C124.817 32.1849 125.01 32.7322 123.747 33.8721C122.442 35.0494 122.714 35.7119 124.709 36.2212C125.708 36.4762 126.791 36.775 127.116 36.8854C127.441 36.9953 128.691 36.3363 129.894 35.4207C131.097 34.5055 132.868 33.3623 133.83 32.8806C135.403 32.0933 136.307 31.0745 139.759 26.1992C140.318 25.4115 140.417 25.3991 141.069 26.0402C141.726 26.6848 141.726 26.9768 141.067 30.1972C140.221 34.3324 140.324 35.7059 141.538 36.5047C142.355 37.0422 142.577 36.9932 143.736 36.0205C145.335 34.6786 145.577 34.6773 146.826 36.0034C147.378 36.5895 148.081 37.0691 148.387 37.0691C149.237 37.0691 150.213 38.8321 151.02 41.8241C151.677 44.2602 151.868 44.5424 152.947 44.666C154.566 44.8519 155.374 44.0752 155.374 42.3318C155.374 40.7333 156.293 40.0462 157.462 40.7712C158.822 41.6148 160.93 44.8071 160.93 46.0229C160.93 47.3034 159.061 49.2199 158.281 48.739C157.513 48.2659 155.489 50.751 153.911 54.1053L152.34 57.4452L153.602 59.299C155.38 61.912 155.599 63.5885 154.355 65.0801C152.505 67.2979 152.224 68.1586 153.051 69.0699C153.625 69.7025 154.141 69.8261 155.381 69.6279C157.163 69.344 159.221 70.353 159.221 71.5112C159.221 71.879 158.804 73.0381 158.295 74.0871C157.444 75.8408 157.416 76.1502 157.943 77.9512C158.741 80.6755 158.657 81.6248 157.326 84.9288L156.161 87.8172L157.157 88.6582C158.227 89.5632 158.176 89.6651 155.945 91.0547C155.197 91.5215 155.213 91.6489 156.306 93.8255C157.343 95.889 158.366 99.9169 158.366 101.933C158.366 102.48 158.049 102.714 157.312 102.714C156.698 102.714 156.069 103.068 155.804 103.563C155.299 104.503 153.247 105.698 152.137 105.698C151.743 105.698 149.918 106.375 148.082 107.202C144.916 108.628 144.567 108.694 141.403 108.458C136.403 108.087 136.463 108.025 133.502 116.522C131.146 123.283 130.85 123.877 128.655 126.241C127.369 127.626 126.197 129.277 126.05 129.91C125.574 131.965 123.814 134.549 121.677 136.334C119.175 138.424 118.648 140.29 119.719 143.27C120.998 146.831 119.748 149.604 116.863 149.604C115.97 149.604 114.778 149.814 114.214 150.07C113.41 150.436 112.5 150.344 110 149.644C105.711 148.444 104.705 148.496 103.201 149.996C102.515 150.681 101.378 151.367 100.675 151.521C99.193 151.845 97.6766 153.564 97.6766 154.919C97.6766 156.32 97.2522 156.489 96.0658 155.558C95.4781 155.096 94.5682 154.719 94.0438 154.719C92.7625 154.719 90.8384 156.284 90.8384 157.327C90.8384 157.79 90.3584 158.647 89.7721 159.232C88.2458 160.754 87.4206 162.535 86.9744 165.27C86.4786 168.307 86.1837 168.586 84.2139 167.876C82.7193 167.336 82.5877 167.362 81.7927 168.341C81.2568 169.001 81.0495 169.695 81.2213 170.254C81.8974 172.457 81.9226 174.64 81.2888 176.152C80.6862 177.591 80.4729 177.738 78.9869 177.738C77.5599 177.738 77.2872 177.573 76.8653 176.459C76.4739 175.424 76.1332 175.18 75.0814 175.18C73.9253 175.18 73.7557 175.345 73.5484 176.672C73.4202 177.493 73.2073 178.854 73.0748 179.696C72.9338 180.593 73.1223 182.143 73.5296 183.434C74.0493 185.082 74.1147 185.927 73.789 186.781C73.2189 188.277 70.49 191.271 68.9928 192.043C68.0722 192.518 67.7821 193.006 67.6786 194.253L67.5457 195.854L65.7293 195.719L63.9129 195.583V197.251C63.9129 198.39 64.1903 199.169 64.7865 199.708C65.9973 200.8 65.737 202.285 64.3621 202.132C63.3646 202.021 53.3684 198.172 41.475 193.32C32.1938 189.534 8.64173 180.373 7.40828 180.07C5.50769 179.603 5.11962 178.768 6.41119 177.923C7.02064 177.525 8.12074 177.077 8.8567 176.927C10.8124 176.528 11.2582 175.563 10.3577 173.68C9.74268 172.393 9.69738 171.835 10.0889 170.353C10.7184 167.97 12.3908 165.166 14.5786 162.825C15.5676 161.766 16.8074 159.982 17.334 158.86C18.7926 155.751 25.3842 150.074 30.0894 147.875C32.1122 146.93 34.1897 145.76 34.706 145.276C35.7621 144.287 39.653 143.687 45.2099 143.655C47.7546 143.64 49.1663 143.377 51.3272 142.515C53.7543 141.545 54.4518 140.998 56.4601 138.488C57.7384 136.89 58.7842 135.409 58.7842 135.197C58.7842 134.778 54.7719 132.877 50.0228 131.047C43.8098 128.653 34.8355 124.059 34.4359 123.067C34.0624 122.141 34.0491 122.139 34.0226 123.003C33.9872 124.173 34.8646 124.9 38.4833 126.701C42.4747 128.687 54.3689 133.835 56.1131 134.33C56.8772 134.547 57.5021 134.915 57.5021 135.148C57.5021 135.816 54.6869 139.809 53.7586 140.458C51.2682 142.198 48.3213 142.882 42.1161 143.161C36.092 143.432 35.8651 143.476 33.9957 144.761C32.9379 145.487 30.7262 146.761 29.0807 147.592C23.8362 150.241 17.1079 156.229 16.2727 158.992C16.0971 159.573 15.2231 160.815 14.3307 161.753C12.0835 164.114 10.147 167.312 9.38324 169.924C8.80712 171.896 8.80841 172.292 9.39778 173.699C10.0991 175.372 9.97347 176.033 8.95415 176.033C8.60754 176.033 7.34546 176.527 6.1492 177.132C4.59393 177.918 3.84343 178.1 3.51349 177.771C2.82539 177.085 1.85907 177.216 2.0172 177.975C2.10738 178.409 7.10184 180.6 16.4728 184.316C24.3474 187.44 32.2327 190.586 33.9957 191.308C35.7587 192.031 43.3517 195.039 50.869 197.992C62.3243 202.492 64.6937 203.29 65.5071 202.92C66.7136 202.372 66.7602 201.036 65.6225 199.594C64.1458 197.721 64.8147 195.432 66.3815 196.995C67.1217 197.733 68.5347 196.303 68.6971 194.651C68.8044 193.564 69.08 193.252 70.2169 192.929C70.9806 192.711 71.6059 192.297 71.6059 192.008C71.6059 191.719 71.9085 191.232 72.2782 190.926C73.4253 189.977 74.6186 187.186 74.5929 185.515C74.5797 184.637 74.5271 182.196 74.4762 180.089C74.3963 176.776 74.4822 176.241 75.1126 176.119C75.6302 176.019 75.9465 176.386 76.2059 177.39C76.5392 178.683 76.7277 178.815 78.4057 178.936C80.596 179.095 81.4974 178.43 82.2757 176.078C82.6842 174.842 82.712 173.805 82.3859 171.928C82.147 170.552 82.0526 169.26 82.1765 169.057C82.3004 168.854 83.2347 168.781 84.2528 168.896C86.6111 169.161 87.3706 168.393 87.7984 165.307C88.1616 162.689 88.61 161.737 90.1627 160.288C90.7747 159.718 91.4726 158.521 91.7132 157.628C92.2774 155.538 93.628 155.114 95.6837 156.381C97.5698 157.544 98.104 157.511 98.104 156.231C98.104 153.949 99.7623 152.162 101.878 152.162C102.287 152.162 102.962 151.586 103.378 150.883C104.309 149.311 105.338 149.251 110.19 150.487C112.859 151.167 113.889 151.265 114.662 150.913C115.215 150.662 116.248 150.457 116.957 150.457C118.894 150.457 119.752 149.809 120.539 147.751C121.189 146.056 121.194 145.694 120.602 143.706C119.588 140.302 120.006 139.062 123.304 135.673C125.382 133.538 126.267 132.283 126.475 131.18C126.669 130.15 127.633 128.674 129.422 126.669C131.986 123.796 132.157 123.455 134.214 117.15C135.386 113.553 136.711 110.246 137.157 109.8C137.874 109.086 138.398 109.02 141.59 109.245C144.975 109.483 145.367 109.421 147.621 108.293C148.947 107.63 151.098 106.781 152.402 106.406C153.706 106.031 155.23 105.239 155.789 104.646C156.481 103.911 157.258 103.567 158.226 103.567C159.008 103.567 159.645 103.423 159.642 103.247C159.612 101.552 157.799 94.7044 157.067 93.5237C156.553 92.6929 156.201 91.9648 156.287 91.9064C156.372 91.8476 156.972 91.4699 157.618 91.0662C158.939 90.2423 159.223 88.4771 158.103 88.0487C157.349 87.7601 157.367 87.6147 158.718 83.0771C159.469 80.5506 159.49 80.1346 158.93 78.8144C158.231 77.1703 158.332 76.114 159.462 73.2158C160.214 71.2895 160.215 71.1782 159.48 70.3683C159.059 69.905 158.049 69.2102 157.234 68.8244C156.047 68.263 155.625 68.228 155.118 68.6483C154.655 69.0311 154.355 69.0461 154.012 68.7038C153.428 68.1211 154.206 66.0438 155.419 64.9492C156.453 64.0157 156.196 62.031 154.659 59.1038C153.417 56.7358 153.506 56.0039 155.429 52.743C156.906 50.2395 157.314 49.8729 158.642 49.8635C159.99 49.8542 162.325 47.0527 161.962 45.8792C161.434 44.1712 160.533 42.7035 159.046 41.131C157.828 39.8428 157.32 39.5922 156.151 39.7043C154.813 39.8322 154.721 39.9481 154.519 41.758C154.346 43.3101 154.145 43.6763 153.464 43.6763C152.8 43.6763 152.393 43.0109 151.54 40.5364C150.643 37.9297 150.169 37.1889 148.75 36.1744C145.525 33.8695 145.298 33.8209 143.548 35.0626C142.684 35.6752 141.819 36.078 141.624 35.9582C141.092 35.63 141.209 33.3286 141.903 30.4619C142.829 26.6349 142.749 25.6131 141.484 25.1336C140.195 24.6451 138.279 25.2563 138.279 26.1562C138.279 26.4955 137.798 27.3434 137.21 28.0399C136.622 28.7364 136.142 29.5037 136.142 29.7449C136.142 30.3336 134.383 31.6657 130.969 33.6645C127.792 35.5243 126.348 35.9945 125.064 35.5878C124.236 35.3261 124.221 35.2323 124.819 34.0788C125.747 32.2889 125.619 31.6994 124.068 30.6141C123.304 30.0796 121.577 28.6025 120.231 27.3323C117.902 25.1349 117.723 25.047 116.555 25.5296C115.523 25.9558 115.027 25.903 113.447 25.1979C112.413 24.7367 110.797 24.1979 109.857 24.0006C108.537 23.7235 108.116 23.4204 108.01 22.6706C107.934 22.1369 106.379 20.1705 104.555 18.3013C101.6 15.274 101.066 14.9031 99.6708 14.9031C97.9228 14.9031 97.5834 14.0472 98.7314 12.5335C99.4447 11.5927 99.5845 9.96055 98.9836 9.59012C98.7622 9.45371 97.4732 9.13742 96.1188 8.88806C94.1481 8.52445 93.3446 8.1131 92.0902 6.82406C90.7345 5.43017 90.208 5.18762 88.1745 5.01967C86.6359 4.89222 85.417 4.50474 84.6413 3.89645C83.2475 2.80265 81.7632 2.70205 80.8251 3.63728Z"/>
</mask>
<path fill-rule="evenodd" clip-rule="evenodd" d="M80.8251 3.63728C79.9985 4.46211 79.9742 5.78994 80.7418 8.17448C82.1479 12.5416 82.3863 13.9283 81.8897 14.8537C81.6235 15.3499 81.0426 15.7557 80.5986 15.7557C80.1545 15.7557 79.3818 16.283 78.8809 16.9279C75.1092 21.7857 75.3832 21.0555 75.7028 25.4021C75.8623 27.568 75.8747 29.6473 75.7302 30.0225C75.4917 30.6427 75.3755 30.6444 74.4493 30.0391C72.5145 28.7748 70.4853 30.323 68.265 34.7566C66.4076 38.4647 64.7198 39.6267 61.1896 39.6267C58.5594 39.6267 58.3017 39.7192 56.4336 41.3318C54.5851 42.9273 54.2877 43.0369 51.7986 43.0369H49.1385L47.2302 45.3323C46.1801 46.5945 45.1087 47.985 44.848 48.4215C44.4577 49.0767 43.7303 49.242 40.6925 49.3665L37.0105 49.5174L35.0757 52.5333C34.0115 54.1923 33.1409 55.7776 33.1409 56.0559C33.1409 56.3347 32.7422 57.0679 32.2549 57.6856C31.3933 58.7785 31.2741 58.8024 27.8742 58.5616L24.3795 58.3143L20.1188 61.126C17.7754 62.6725 15.7338 64.1742 15.5821 64.4637C15.4304 64.7531 15.1833 65.9334 15.0329 67.0865C14.8829 68.2396 14.2811 70.2264 13.696 71.5009C13.1109 72.7759 12.7387 73.9912 12.8695 74.2018C12.9998 74.4123 14.2486 75.3582 15.6445 76.3037C17.0403 77.2492 18.1823 78.1669 18.1823 78.3434C18.1823 79.762 16.5971 84.0942 15.2218 86.4348C12.1647 91.6374 12.0262 91.805 10.2295 92.4725C7.90533 93.3353 7.08902 94.0638 6.15689 96.1073C5.09226 98.442 5.1427 99.6645 6.32229 100.121C10.3376 101.676 14.9004 103.872 16.9467 105.235C18.2858 106.127 21.2305 107.571 23.4901 108.445C27.2558 109.9 30.4928 111.951 32.387 114.082C32.8704 114.626 33.27 116.17 33.5341 118.513L33.9397 122.11L33.8367 118.179L33.7337 114.248L31.1933 111.922C29.2765 110.167 27.7909 109.268 25.1381 108.259C21.0958 106.72 17.9169 105.115 16.6865 103.991C15.9702 103.336 9.68327 100.486 6.91123 99.5588C6.2663 99.3431 6.16373 99.0242 6.38212 97.9125C6.80866 95.7394 7.96175 94.5003 10.8248 93.1379C12.4391 92.3698 13.5832 91.533 13.7396 91.0066C13.8815 90.5296 14.8594 88.6557 15.9133 86.8419C17.6712 83.8163 19.0196 80.135 19.032 78.3263C19.035 77.9082 17.9421 76.8549 16.4728 75.8595C15.0624 74.9043 13.9084 73.9793 13.9084 73.8041C13.9084 73.6289 14.2957 72.3867 14.7688 71.0435C15.2423 69.7008 15.8283 67.6777 16.071 66.5485C16.492 64.5911 16.6856 64.3784 20.2321 61.9892C23.6367 59.6954 24.1512 59.4823 26.3027 59.4704C27.5956 59.4635 29.1517 59.6123 29.7611 59.802C31.2138 60.2534 33.3008 58.565 34.0346 56.3437C34.3227 55.4724 35.2283 53.7524 36.0472 52.5213L37.5358 50.2834H41.2929C44.4954 50.2834 45.0856 50.1734 45.2886 49.5374C45.4198 49.127 46.3942 47.7365 47.4537 46.447L49.3804 44.1025L52.3371 43.8647C54.9865 43.6515 55.475 43.4631 57.0401 42.053C58.6671 40.5871 58.9727 40.4792 61.4994 40.4792C65.2938 40.4792 67.2346 39.0564 69.2677 34.7847C71.02 31.103 72.1931 30.2258 74.3006 31.0212C76.4764 31.8426 76.8743 30.9402 76.5615 25.8957C76.3072 21.7925 76.3161 21.743 77.5257 20.3543C78.1971 19.5831 78.9737 18.5209 79.2515 17.9936C79.5293 17.4663 80.0472 17.0345 80.4028 17.0345C81.3136 17.0345 83.1454 14.9492 83.1454 13.9121C83.1454 13.4355 82.9578 12.4563 82.7287 11.7364C81.8953 9.11696 81.0401 4.96681 81.2602 4.61088C81.6098 4.04692 83.0565 4.17864 84.4596 4.90245C85.1588 5.26307 86.832 5.7601 88.1779 6.00648C90.1524 6.36838 90.8555 6.73327 91.8214 7.89656C92.7843 9.05686 93.4292 9.39233 95.126 9.61698C96.285 9.77001 97.5629 10.1357 97.9655 10.4294C98.6557 10.9329 98.6549 11.0284 97.948 12.1043C97.5172 12.7603 97.2548 13.8242 97.3308 14.6069C97.4565 15.9032 97.5411 15.9628 99.0883 15.8409C100.595 15.7224 100.932 15.9309 103.693 18.6846C105.332 20.3189 106.874 22.2328 107.121 22.9379C107.555 24.1796 109.192 25.1336 110.889 25.1336C111.269 25.1336 112.321 25.53 113.228 26.0147C114.433 26.6588 115.295 26.8254 116.434 26.6336C117.794 26.4043 118.153 26.5403 119.267 27.7065C119.968 28.441 121.455 29.7134 122.572 30.5344C124.817 32.1849 125.01 32.7322 123.747 33.8721C122.442 35.0494 122.714 35.7119 124.709 36.2212C125.708 36.4762 126.791 36.775 127.116 36.8854C127.441 36.9953 128.691 36.3363 129.894 35.4207C131.097 34.5055 132.868 33.3623 133.83 32.8806C135.403 32.0933 136.307 31.0745 139.759 26.1992C140.318 25.4115 140.417 25.3991 141.069 26.0402C141.726 26.6848 141.726 26.9768 141.067 30.1972C140.221 34.3324 140.324 35.7059 141.538 36.5047C142.355 37.0422 142.577 36.9932 143.736 36.0205C145.335 34.6786 145.577 34.6773 146.826 36.0034C147.378 36.5895 148.081 37.0691 148.387 37.0691C149.237 37.0691 150.213 38.8321 151.02 41.8241C151.677 44.2602 151.868 44.5424 152.947 44.666C154.566 44.8519 155.374 44.0752 155.374 42.3318C155.374 40.7333 156.293 40.0462 157.462 40.7712C158.822 41.6148 160.93 44.8071 160.93 46.0229C160.93 47.3034 159.061 49.2199 158.281 48.739C157.513 48.2659 155.489 50.751 153.911 54.1053L152.34 57.4452L153.602 59.299C155.38 61.912 155.599 63.5885 154.355 65.0801C152.505 67.2979 152.224 68.1586 153.051 69.0699C153.625 69.7025 154.141 69.8261 155.381 69.6279C157.163 69.344 159.221 70.353 159.221 71.5112C159.221 71.879 158.804 73.0381 158.295 74.0871C157.444 75.8408 157.416 76.1502 157.943 77.9512C158.741 80.6755 158.657 81.6248 157.326 84.9288L156.161 87.8172L157.157 88.6582C158.227 89.5632 158.176 89.6651 155.945 91.0547C155.197 91.5215 155.213 91.6489 156.306 93.8255C157.343 95.889 158.366 99.9169 158.366 101.933C158.366 102.48 158.049 102.714 157.312 102.714C156.698 102.714 156.069 103.068 155.804 103.563C155.299 104.503 153.247 105.698 152.137 105.698C151.743 105.698 149.918 106.375 148.082 107.202C144.916 108.628 144.567 108.694 141.403 108.458C136.403 108.087 136.463 108.025 133.502 116.522C131.146 123.283 130.85 123.877 128.655 126.241C127.369 127.626 126.197 129.277 126.05 129.91C125.574 131.965 123.814 134.549 121.677 136.334C119.175 138.424 118.648 140.29 119.719 143.27C120.998 146.831 119.748 149.604 116.863 149.604C115.97 149.604 114.778 149.814 114.214 150.07C113.41 150.436 112.5 150.344 110 149.644C105.711 148.444 104.705 148.496 103.201 149.996C102.515 150.681 101.378 151.367 100.675 151.521C99.193 151.845 97.6766 153.564 97.6766 154.919C97.6766 156.32 97.2522 156.489 96.0658 155.558C95.4781 155.096 94.5682 154.719 94.0438 154.719C92.7625 154.719 90.8384 156.284 90.8384 157.327C90.8384 157.79 90.3584 158.647 89.7721 159.232C88.2458 160.754 87.4206 162.535 86.9744 165.27C86.4786 168.307 86.1837 168.586 84.2139 167.876C82.7193 167.336 82.5877 167.362 81.7927 168.341C81.2568 169.001 81.0495 169.695 81.2213 170.254C81.8974 172.457 81.9226 174.64 81.2888 176.152C80.6862 177.591 80.4729 177.738 78.9869 177.738C77.5599 177.738 77.2872 177.573 76.8653 176.459C76.4739 175.424 76.1332 175.18 75.0814 175.18C73.9253 175.18 73.7557 175.345 73.5484 176.672C73.4202 177.493 73.2073 178.854 73.0748 179.696C72.9338 180.593 73.1223 182.143 73.5296 183.434C74.0493 185.082 74.1147 185.927 73.789 186.781C73.2189 188.277 70.49 191.271 68.9928 192.043C68.0722 192.518 67.7821 193.006 67.6786 194.253L67.5457 195.854L65.7293 195.719L63.9129 195.583V197.251C63.9129 198.39 64.1903 199.169 64.7865 199.708C65.9973 200.8 65.737 202.285 64.3621 202.132C63.3646 202.021 53.3684 198.172 41.475 193.32C32.1938 189.534 8.64173 180.373 7.40828 180.07C5.50769 179.603 5.11962 178.768 6.41119 177.923C7.02064 177.525 8.12074 177.077 8.8567 176.927C10.8124 176.528 11.2582 175.563 10.3577 173.68C9.74268 172.393 9.69738 171.835 10.0889 170.353C10.7184 167.97 12.3908 165.166 14.5786 162.825C15.5676 161.766 16.8074 159.982 17.334 158.86C18.7926 155.751 25.3842 150.074 30.0894 147.875C32.1122 146.93 34.1897 145.76 34.706 145.276C35.7621 144.287 39.653 143.687 45.2099 143.655C47.7546 143.64 49.1663 143.377 51.3272 142.515C53.7543 141.545 54.4518 140.998 56.4601 138.488C57.7384 136.89 58.7842 135.409 58.7842 135.197C58.7842 134.778 54.7719 132.877 50.0228 131.047C43.8098 128.653 34.8355 124.059 34.4359 123.067C34.0624 122.141 34.0491 122.139 34.0226 123.003C33.9872 124.173 34.8646 124.9 38.4833 126.701C42.4747 128.687 54.3689 133.835 56.1131 134.33C56.8772 134.547 57.5021 134.915 57.5021 135.148C57.5021 135.816 54.6869 139.809 53.7586 140.458C51.2682 142.198 48.3213 142.882 42.1161 143.161C36.092 143.432 35.8651 143.476 33.9957 144.761C32.9379 145.487 30.7262 146.761 29.0807 147.592C23.8362 150.241 17.1079 156.229 16.2727 158.992C16.0971 159.573 15.2231 160.815 14.3307 161.753C12.0835 164.114 10.147 167.312 9.38324 169.924C8.80712 171.896 8.80841 172.292 9.39778 173.699C10.0991 175.372 9.97347 176.033 8.95415 176.033C8.60754 176.033 7.34546 176.527 6.1492 177.132C4.59393 177.918 3.84343 178.1 3.51349 177.771C2.82539 177.085 1.85907 177.216 2.0172 177.975C2.10738 178.409 7.10184 180.6 16.4728 184.316C24.3474 187.44 32.2327 190.586 33.9957 191.308C35.7587 192.031 43.3517 195.039 50.869 197.992C62.3243 202.492 64.6937 203.29 65.5071 202.92C66.7136 202.372 66.7602 201.036 65.6225 199.594C64.1458 197.721 64.8147 195.432 66.3815 196.995C67.1217 197.733 68.5347 196.303 68.6971 194.651C68.8044 193.564 69.08 193.252 70.2169 192.929C70.9806 192.711 71.6059 192.297 71.6059 192.008C71.6059 191.719 71.9085 191.232 72.2782 190.926C73.4253 189.977 74.6186 187.186 74.5929 185.515C74.5797 184.637 74.5271 182.196 74.4762 180.089C74.3963 176.776 74.4822 176.241 75.1126 176.119C75.6302 176.019 75.9465 176.386 76.2059 177.39C76.5392 178.683 76.7277 178.815 78.4057 178.936C80.596 179.095 81.4974 178.43 82.2757 176.078C82.6842 174.842 82.712 173.805 82.3859 171.928C82.147 170.552 82.0526 169.26 82.1765 169.057C82.3004 168.854 83.2347 168.781 84.2528 168.896C86.6111 169.161 87.3706 168.393 87.7984 165.307C88.1616 162.689 88.61 161.737 90.1627 160.288C90.7747 159.718 91.4726 158.521 91.7132 157.628C92.2774 155.538 93.628 155.114 95.6837 156.381C97.5698 157.544 98.104 157.511 98.104 156.231C98.104 153.949 99.7623 152.162 101.878 152.162C102.287 152.162 102.962 151.586 103.378 150.883C104.309 149.311 105.338 149.251 110.19 150.487C112.859 151.167 113.889 151.265 114.662 150.913C115.215 150.662 116.248 150.457 116.957 150.457C118.894 150.457 119.752 149.809 120.539 147.751C121.189 146.056 121.194 145.694 120.602 143.706C119.588 140.302 120.006 139.062 123.304 135.673C125.382 133.538 126.267 132.283 126.475 131.18C126.669 130.15 127.633 128.674 129.422 126.669C131.986 123.796 132.157 123.455 134.214 117.15C135.386 113.553 136.711 110.246 137.157 109.8C137.874 109.086 138.398 109.02 141.59 109.245C144.975 109.483 145.367 109.421 147.621 108.293C148.947 107.63 151.098 106.781 152.402 106.406C153.706 106.031 155.23 105.239 155.789 104.646C156.481 103.911 157.258 103.567 158.226 103.567C159.008 103.567 159.645 103.423 159.642 103.247C159.612 101.552 157.799 94.7044 157.067 93.5237C156.553 92.6929 156.201 91.9648 156.287 91.9064C156.372 91.8476 156.972 91.4699 157.618 91.0662C158.939 90.2423 159.223 88.4771 158.103 88.0487C157.349 87.7601 157.367 87.6147 158.718 83.0771C159.469 80.5506 159.49 80.1346 158.93 78.8144C158.231 77.1703 158.332 76.114 159.462 73.2158C160.214 71.2895 160.215 71.1782 159.48 70.3683C159.059 69.905 158.049 69.2102 157.234 68.8244C156.047 68.263 155.625 68.228 155.118 68.6483C154.655 69.0311 154.355 69.0461 154.012 68.7038C153.428 68.1211 154.206 66.0438 155.419 64.9492C156.453 64.0157 156.196 62.031 154.659 59.1038C153.417 56.7358 153.506 56.0039 155.429 52.743C156.906 50.2395 157.314 49.8729 158.642 49.8635C159.99 49.8542 162.325 47.0527 161.962 45.8792C161.434 44.1712 160.533 42.7035 159.046 41.131C157.828 39.8428 157.32 39.5922 156.151 39.7043C154.813 39.8322 154.721 39.9481 154.519 41.758C154.346 43.3101 154.145 43.6763 153.464 43.6763C152.8 43.6763 152.393 43.0109 151.54 40.5364C150.643 37.9297 150.169 37.1889 148.75 36.1744C145.525 33.8695 145.298 33.8209 143.548 35.0626C142.684 35.6752 141.819 36.078 141.624 35.9582C141.092 35.63 141.209 33.3286 141.903 30.4619C142.829 26.6349 142.749 25.6131 141.484 25.1336C140.195 24.6451 138.279 25.2563 138.279 26.1562C138.279 26.4955 137.798 27.3434 137.21 28.0399C136.622 28.7364 136.142 29.5037 136.142 29.7449C136.142 30.3336 134.383 31.6657 130.969 33.6645C127.792 35.5243 126.348 35.9945 125.064 35.5878C124.236 35.3261 124.221 35.2323 124.819 34.0788C125.747 32.2889 125.619 31.6994 124.068 30.6141C123.304 30.0796 121.577 28.6025 120.231 27.3323C117.902 25.1349 117.723 25.047 116.555 25.5296C115.523 25.9558 115.027 25.903 113.447 25.1979C112.413 24.7367 110.797 24.1979 109.857 24.0006C108.537 23.7235 108.116 23.4204 108.01 22.6706C107.934 22.1369 106.379 20.1705 104.555 18.3013C101.6 15.274 101.066 14.9031 99.6708 14.9031C97.9228 14.9031 97.5834 14.0472 98.7314 12.5335C99.4447 11.5927 99.5845 9.96055 98.9836 9.59012C98.7622 9.45371 97.4732 9.13742 96.1188 8.88806C94.1481 8.52445 93.3446 8.1131 92.0902 6.82406C90.7345 5.43017 90.208 5.18762 88.1745 5.01967C86.6359 4.89222 85.417 4.50474 84.6413 3.89645C83.2475 2.80265 81.7632 2.70205 80.8251 3.63728Z" fill="#060606"/>
<path fill-rule="evenodd" clip-rule="evenodd" d="M80.8251 3.63728C79.9985 4.46211 79.9742 5.78994 80.7418 8.17448C82.1479 12.5416 82.3863 13.9283 81.8897 14.8537C81.6235 15.3499 81.0426 15.7557 80.5986 15.7557C80.1545 15.7557 79.3818 16.283 78.8809 16.9279C75.1092 21.7857 75.3832 21.0555 75.7028 25.4021C75.8623 27.568 75.8747 29.6473 75.7302 30.0225C75.4917 30.6427 75.3755 30.6444 74.4493 30.0391C72.5145 28.7748 70.4853 30.323 68.265 34.7566C66.4076 38.4647 64.7198 39.6267 61.1896 39.6267C58.5594 39.6267 58.3017 39.7192 56.4336 41.3318C54.5851 42.9273 54.2877 43.0369 51.7986 43.0369H49.1385L47.2302 45.3323C46.1801 46.5945 45.1087 47.985 44.848 48.4215C44.4577 49.0767 43.7303 49.242 40.6925 49.3665L37.0105 49.5174L35.0757 52.5333C34.0115 54.1923 33.1409 55.7776 33.1409 56.0559C33.1409 56.3347 32.7422 57.0679 32.2549 57.6856C31.3933 58.7785 31.2741 58.8024 27.8742 58.5616L24.3795 58.3143L20.1188 61.126C17.7754 62.6725 15.7338 64.1742 15.5821 64.4637C15.4304 64.7531 15.1833 65.9334 15.0329 67.0865C14.8829 68.2396 14.2811 70.2264 13.696 71.5009C13.1109 72.7759 12.7387 73.9912 12.8695 74.2018C12.9998 74.4123 14.2486 75.3582 15.6445 76.3037C17.0403 77.2492 18.1823 78.1669 18.1823 78.3434C18.1823 79.762 16.5971 84.0942 15.2218 86.4348C12.1647 91.6374 12.0262 91.805 10.2295 92.4725C7.90533 93.3353 7.08902 94.0638 6.15689 96.1073C5.09226 98.442 5.1427 99.6645 6.32229 100.121C10.3376 101.676 14.9004 103.872 16.9467 105.235C18.2858 106.127 21.2305 107.571 23.4901 108.445C27.2558 109.9 30.4928 111.951 32.387 114.082C32.8704 114.626 33.27 116.17 33.5341 118.513L33.9397 122.11L33.8367 118.179L33.7337 114.248L31.1933 111.922C29.2765 110.167 27.7909 109.268 25.1381 108.259C21.0958 106.72 17.9169 105.115 16.6865 103.991C15.9702 103.336 9.68327 100.486 6.91123 99.5588C6.2663 99.3431 6.16373 99.0242 6.38212 97.9125C6.80866 95.7394 7.96175 94.5003 10.8248 93.1379C12.4391 92.3698 13.5832 91.533 13.7396 91.0066C13.8815 90.5296 14.8594 88.6557 15.9133 86.8419C17.6712 83.8163 19.0196 80.135 19.032 78.3263C19.035 77.9082 17.9421 76.8549 16.4728 75.8595C15.0624 74.9043 13.9084 73.9793 13.9084 73.8041C13.9084 73.6289 14.2957 72.3867 14.7688 71.0435C15.2423 69.7008 15.8283 67.6777 16.071 66.5485C16.492 64.5911 16.6856 64.3784 20.2321 61.9892C23.6367 59.6954 24.1512 59.4823 26.3027 59.4704C27.5956 59.4635 29.1517 59.6123 29.7611 59.802C31.2138 60.2534 33.3008 58.565 34.0346 56.3437C34.3227 55.4724 35.2283 53.7524 36.0472 52.5213L37.5358 50.2834H41.2929C44.4954 50.2834 45.0856 50.1734 45.2886 49.5374C45.4198 49.127 46.3942 47.7365 47.4537 46.447L49.3804 44.1025L52.3371 43.8647C54.9865 43.6515 55.475 43.4631 57.0401 42.053C58.6671 40.5871 58.9727 40.4792 61.4994 40.4792C65.2938 40.4792 67.2346 39.0564 69.2677 34.7847C71.02 31.103 72.1931 30.2258 74.3006 31.0212C76.4764 31.8426 76.8743 30.9402 76.5615 25.8957C76.3072 21.7925 76.3161 21.743 77.5257 20.3543C78.1971 19.5831 78.9737 18.5209 79.2515 17.9936C79.5293 17.4663 80.0472 17.0345 80.4028 17.0345C81.3136 17.0345 83.1454 14.9492 83.1454 13.9121C83.1454 13.4355 82.9578 12.4563 82.7287 11.7364C81.8953 9.11696 81.0401 4.96681 81.2602 4.61088C81.6098 4.04692 83.0565 4.17864 84.4596 4.90245C85.1588 5.26307 86.832 5.7601 88.1779 6.00648C90.1524 6.36838 90.8555 6.73327 91.8214 7.89656C92.7843 9.05686 93.4292 9.39233 95.126 9.61698C96.285 9.77001 97.5629 10.1357 97.9655 10.4294C98.6557 10.9329 98.6549 11.0284 97.948 12.1043C97.5172 12.7603 97.2548 13.8242 97.3308 14.6069C97.4565 15.9032 97.5411 15.9628 99.0883 15.8409C100.595 15.7224 100.932 15.9309 103.693 18.6846C105.332 20.3189 106.874 22.2328 107.121 22.9379C107.555 24.1796 109.192 25.1336 110.889 25.1336C111.269 25.1336 112.321 25.53 113.228 26.0147C114.433 26.6588 115.295 26.8254 116.434 26.6336C117.794 26.4043 118.153 26.5403 119.267 27.7065C119.968 28.441 121.455 29.7134 122.572 30.5344C124.817 32.1849 125.01 32.7322 123.747 33.8721C122.442 35.0494 122.714 35.7119 124.709 36.2212C125.708 36.4762 126.791 36.775 127.116 36.8854C127.441 36.9953 128.691 36.3363 129.894 35.4207C131.097 34.5055 132.868 33.3623 133.83 32.8806C135.403 32.0933 136.307 31.0745 139.759 26.1992C140.318 25.4115 140.417 25.3991 141.069 26.0402C141.726 26.6848 141.726 26.9768 141.067 30.1972C140.221 34.3324 140.324 35.7059 141.538 36.5047C142.355 37.0422 142.577 36.9932 143.736 36.0205C145.335 34.6786 145.577 34.6773 146.826 36.0034C147.378 36.5895 148.081 37.0691 148.387 37.0691C149.237 37.0691 150.213 38.8321 151.02 41.8241C151.677 44.2602 151.868 44.5424 152.947 44.666C154.566 44.8519 155.374 44.0752 155.374 42.3318C155.374 40.7333 156.293 40.0462 157.462 40.7712C158.822 41.6148 160.93 44.8071 160.93 46.0229C160.93 47.3034 159.061 49.2199 158.281 48.739C157.513 48.2659 155.489 50.751 153.911 54.1053L152.34 57.4452L153.602 59.299C155.38 61.912 155.599 63.5885 154.355 65.0801C152.505 67.2979 152.224 68.1586 153.051 69.0699C153.625 69.7025 154.141 69.8261 155.381 69.6279C157.163 69.344 159.221 70.353 159.221 71.5112C159.221 71.879 158.804 73.0381 158.295 74.0871C157.444 75.8408 157.416 76.1502 157.943 77.9512C158.741 80.6755 158.657 81.6248 157.326 84.9288L156.161 87.8172L157.157 88.6582C158.227 89.5632 158.176 89.6651 155.945 91.0547C155.197 91.5215 155.213 91.6489 156.306 93.8255C157.343 95.889 158.366 99.9169 158.366 101.933C158.366 102.48 158.049 102.714 157.312 102.714C156.698 102.714 156.069 103.068 155.804 103.563C155.299 104.503 153.247 105.698 152.137 105.698C151.743 105.698 149.918 106.375 148.082 107.202C144.916 108.628 144.567 108.694 141.403 108.458C136.403 108.087 136.463 108.025 133.502 116.522C131.146 123.283 130.85 123.877 128.655 126.241C127.369 127.626 126.197 129.277 126.05 129.91C125.574 131.965 123.814 134.549 121.677 136.334C119.175 138.424 118.648 140.29 119.719 143.27C120.998 146.831 119.748 149.604 116.863 149.604C115.97 149.604 114.778 149.814 114.214 150.07C113.41 150.436 112.5 150.344 110 149.644C105.711 148.444 104.705 148.496 103.201 149.996C102.515 150.681 101.378 151.367 100.675 151.521C99.193 151.845 97.6766 153.564 97.6766 154.919C97.6766 156.32 97.2522 156.489 96.0658 155.558C95.4781 155.096 94.5682 154.719 94.0438 154.719C92.7625 154.719 90.8384 156.284 90.8384 157.327C90.8384 157.79 90.3584 158.647 89.7721 159.232C88.2458 160.754 87.4206 162.535 86.9744 165.27C86.4786 168.307 86.1837 168.586 84.2139 167.876C82.7193 167.336 82.5877 167.362 81.7927 168.341C81.2568 169.001 81.0495 169.695 81.2213 170.254C81.8974 172.457 81.9226 174.64 81.2888 176.152C80.6862 177.591 80.4729 177.738 78.9869 177.738C77.5599 177.738 77.2872 177.573 76.8653 176.459C76.4739 175.424 76.1332 175.18 75.0814 175.18C73.9253 175.18 73.7557 175.345 73.5484 176.672C73.4202 177.493 73.2073 178.854 73.0748 179.696C72.9338 180.593 73.1223 182.143 73.5296 183.434C74.0493 185.082 74.1147 185.927 73.789 186.781C73.2189 188.277 70.49 191.271 68.9928 192.043C68.0722 192.518 67.7821 193.006 67.6786 194.253L67.5457 195.854L65.7293 195.719L63.9129 195.583V197.251C63.9129 198.39 64.1903 199.169 64.7865 199.708C65.9973 200.8 65.737 202.285 64.3621 202.132C63.3646 202.021 53.3684 198.172 41.475 193.32C32.1938 189.534 8.64173 180.373 7.40828 180.07C5.50769 179.603 5.11962 178.768 6.41119 177.923C7.02064 177.525 8.12074 177.077 8.8567 176.927C10.8124 176.528 11.2582 175.563 10.3577 173.68C9.74268 172.393 9.69738 171.835 10.0889 170.353C10.7184 167.97 12.3908 165.166 14.5786 162.825C15.5676 161.766 16.8074 159.982 17.334 158.86C18.7926 155.751 25.3842 150.074 30.0894 147.875C32.1122 146.93 34.1897 145.76 34.706 145.276C35.7621 144.287 39.653 143.687 45.2099 143.655C47.7546 143.64 49.1663 143.377 51.3272 142.515C53.7543 141.545 54.4518 140.998 56.4601 138.488C57.7384 136.89 58.7842 135.409 58.7842 135.197C58.7842 134.778 54.7719 132.877 50.0228 131.047C43.8098 128.653 34.8355 124.059 34.4359 123.067C34.0624 122.141 34.0491 122.139 34.0226 123.003C33.9872 124.173 34.8646 124.9 38.4833 126.701C42.4747 128.687 54.3689 133.835 56.1131 134.33C56.8772 134.547 57.5021 134.915 57.5021 135.148C57.5021 135.816 54.6869 139.809 53.7586 140.458C51.2682 142.198 48.3213 142.882 42.1161 143.161C36.092 143.432 35.8651 143.476 33.9957 144.761C32.9379 145.487 30.7262 146.761 29.0807 147.592C23.8362 150.241 17.1079 156.229 16.2727 158.992C16.0971 159.573 15.2231 160.815 14.3307 161.753C12.0835 164.114 10.147 167.312 9.38324 169.924C8.80712 171.896 8.80841 172.292 9.39778 173.699C10.0991 175.372 9.97347 176.033 8.95415 176.033C8.60754 176.033 7.34546 176.527 6.1492 177.132C4.59393 177.918 3.84343 178.1 3.51349 177.771C2.82539 177.085 1.85907 177.216 2.0172 177.975C2.10738 178.409 7.10184 180.6 16.4728 184.316C24.3474 187.44 32.2327 190.586 33.9957 191.308C35.7587 192.031 43.3517 195.039 50.869 197.992C62.3243 202.492 64.6937 203.29 65.5071 202.92C66.7136 202.372 66.7602 201.036 65.6225 199.594C64.1458 197.721 64.8147 195.432 66.3815 196.995C67.1217 197.733 68.5347 196.303 68.6971 194.651C68.8044 193.564 69.08 193.252 70.2169 192.929C70.9806 192.711 71.6059 192.297 71.6059 192.008C71.6059 191.719 71.9085 191.232 72.2782 190.926C73.4253 189.977 74.6186 187.186 74.5929 185.515C74.5797 184.637 74.5271 182.196 74.4762 180.089C74.3963 176.776 74.4822 176.241 75.1126 176.119C75.6302 176.019 75.9465 176.386 76.2059 177.39C76.5392 178.683 76.7277 178.815 78.4057 178.936C80.596 179.095 81.4974 178.43 82.2757 176.078C82.6842 174.842 82.712 173.805 82.3859 171.928C82.147 170.552 82.0526 169.26 82.1765 169.057C82.3004 168.854 83.2347 168.781 84.2528 168.896C86.6111 169.161 87.3706 168.393 87.7984 165.307C88.1616 162.689 88.61 161.737 90.1627 160.288C90.7747 159.718 91.4726 158.521 91.7132 157.628C92.2774 155.538 93.628 155.114 95.6837 156.381C97.5698 157.544 98.104 157.511 98.104 156.231C98.104 153.949 99.7623 152.162 101.878 152.162C102.287 152.162 102.962 151.586 103.378 150.883C104.309 149.311 105.338 149.251 110.19 150.487C112.859 151.167 113.889 151.265 114.662 150.913C115.215 150.662 116.248 150.457 116.957 150.457C118.894 150.457 119.752 149.809 120.539 147.751C121.189 146.056 121.194 145.694 120.602 143.706C119.588 140.302 120.006 139.062 123.304 135.673C125.382 133.538 126.267 132.283 126.475 131.18C126.669 130.15 127.633 128.674 129.422 126.669C131.986 123.796 132.157 123.455 134.214 117.15C135.386 113.553 136.711 110.246 137.157 109.8C137.874 109.086 138.398 109.02 141.59 109.245C144.975 109.483 145.367 109.421 147.621 108.293C148.947 107.63 151.098 106.781 152.402 106.406C153.706 106.031 155.23 105.239 155.789 104.646C156.481 103.911 157.258 103.567 158.226 103.567C159.008 103.567 159.645 103.423 159.642 103.247C159.612 101.552 157.799 94.7044 157.067 93.5237C156.553 92.6929 156.201 91.9648 156.287 91.9064C156.372 91.8476 156.972 91.4699 157.618 91.0662C158.939 90.2423 159.223 88.4771 158.103 88.0487C157.349 87.7601 157.367 87.6147 158.718 83.0771C159.469 80.5506 159.49 80.1346 158.93 78.8144C158.231 77.1703 158.332 76.114 159.462 73.2158C160.214 71.2895 160.215 71.1782 159.48 70.3683C159.059 69.905 158.049 69.2102 157.234 68.8244C156.047 68.263 155.625 68.228 155.118 68.6483C154.655 69.0311 154.355 69.0461 154.012 68.7038C153.428 68.1211 154.206 66.0438 155.419 64.9492C156.453 64.0157 156.196 62.031 154.659 59.1038C153.417 56.7358 153.506 56.0039 155.429 52.743C156.906 50.2395 157.314 49.8729 158.642 49.8635C159.99 49.8542 162.325 47.0527 161.962 45.8792C161.434 44.1712 160.533 42.7035 159.046 41.131C157.828 39.8428 157.32 39.5922 156.151 39.7043C154.813 39.8322 154.721 39.9481 154.519 41.758C154.346 43.3101 154.145 43.6763 153.464 43.6763C152.8 43.6763 152.393 43.0109 151.54 40.5364C150.643 37.9297 150.169 37.1889 148.75 36.1744C145.525 33.8695 145.298 33.8209 143.548 35.0626C142.684 35.6752 141.819 36.078 141.624 35.9582C141.092 35.63 141.209 33.3286 141.903 30.4619C142.829 26.6349 142.749 25.6131 141.484 25.1336C140.195 24.6451 138.279 25.2563 138.279 26.1562C138.279 26.4955 137.798 27.3434 137.21 28.0399C136.622 28.7364 136.142 29.5037 136.142 29.7449C136.142 30.3336 134.383 31.6657 130.969 33.6645C127.792 35.5243 126.348 35.9945 125.064 35.5878C124.236 35.3261 124.221 35.2323 124.819 34.0788C125.747 32.2889 125.619 31.6994 124.068 30.6141C123.304 30.0796 121.577 28.6025 120.231 27.3323C117.902 25.1349 117.723 25.047 116.555 25.5296C115.523 25.9558 115.027 25.903 113.447 25.1979C112.413 24.7367 110.797 24.1979 109.857 24.0006C108.537 23.7235 108.116 23.4204 108.01 22.6706C107.934 22.1369 106.379 20.1705 104.555 18.3013C101.6 15.274 101.066 14.9031 99.6708 14.9031C97.9228 14.9031 97.5834 14.0472 98.7314 12.5335C99.4447 11.5927 99.5845 9.96055 98.9836 9.59012C98.7622 9.45371 97.4732 9.13742 96.1188 8.88806C94.1481 8.52445 93.3446 8.1131 92.0902 6.82406C90.7345 5.43017 90.208 5.18762 88.1745 5.01967C86.6359 4.89222 85.417 4.50474 84.6413 3.89645C83.2475 2.80265 81.7632 2.70205 80.8251 3.63728Z" stroke="#A03315" stroke-width="4" mask="url(#path-1-outside-1_87_8)"/>
</svg>
